<svg width="100%" height="100%" viewBox="0 0 20 21" fill="none" xmlns="http://www.w3.org/2000/svg" fit="" preserveAspectRatio="xMidYMid meet" focusable="false">
<path d="M10.0022 5.53241C7.16453 5.53241 4.87563 7.82182 4.87563 10.6602C4.87563 13.4985 7.16453 15.7879 10.0022 15.7879C12.8399 15.7879 15.1288 13.4985 15.1288 10.6602C15.1288 7.82182 12.8399 5.53241 10.0022 5.53241ZM10.0022 13.9939C8.16843 13.9939 6.66927 12.4988 6.66927 10.6602C6.66927 8.82149 8.16397 7.32645 10.0022 7.32645C11.8405 7.32645 13.3352 8.82149 13.3352 10.6602C13.3352 12.4988 11.836 13.9939 10.0022 13.9939ZM16.5343 5.32266C16.5343 5.98761 15.9989 6.51869 15.3385 6.51869C14.6737 6.51869 14.1428 5.98315 14.1428 5.32266C14.1428 4.66216 14.6782 4.12663 15.3385 4.12663C15.9989 4.12663 16.5343 4.66216 16.5343 5.32266ZM19.9297 6.53654C19.8539 4.93439 19.488 3.51523 18.3146 2.34598C17.1456 1.17672 15.7267 0.810775 14.1249 0.730445C12.4741 0.636727 7.52593 0.636727 5.87507 0.730445C4.27775 0.806313 2.8589 1.17226 1.68544 2.34151C0.511991 3.51076 0.150586 4.92993 0.0702733 6.53207C-0.0234244 8.18331 -0.0234244 13.1325 0.0702733 14.7838C0.146124 16.3859 0.511991 17.8051 1.68544 18.9743C2.8589 20.1436 4.27328 20.5095 5.87507 20.5899C7.52593 20.6836 12.4741 20.6836 14.1249 20.5899C15.7267 20.514 17.1456 20.1481 18.3146 18.9743C19.4835 17.8051 19.8494 16.3859 19.9297 14.7838C20.0234 13.1325 20.0234 8.18777 19.9297 6.53654ZM17.797 16.5555C17.449 17.4302 16.7752 18.1041 15.8963 18.4567C14.58 18.9788 11.4568 18.8583 10.0022 18.8583C8.54769 18.8583 5.41997 18.9743 4.1082 18.4567C3.23369 18.1086 2.55996 17.4347 2.20747 16.5555C1.68544 15.239 1.80591 12.115 1.80591 10.6602C1.80591 9.20529 1.68991 6.07687 2.20747 4.76481C2.55549 3.8901 3.22922 3.21622 4.1082 2.86366C5.42443 2.34151 8.54769 2.46201 10.0022 2.46201C11.4568 2.46201 14.5845 2.34598 15.8963 2.86366C16.7708 3.21176 17.4445 3.88564 17.797 4.76481C18.319 6.08133 18.1985 9.20529 18.1985 10.6602C18.1985 12.115 18.319 15.2434 17.797 16.5555Z" fill="white"></path>
</svg>