<svg width="100%" height="100%" viewBox="0 0 18 19" fill="none" xmlns="http://www.w3.org/2000/svg" fit="" preserveAspectRatio="xMidYMid meet" focusable="false">
<path d="M4.02911 18.6602H0.297321V6.64248H4.02911V18.6602ZM2.16121 5.00315C0.967902 5.00315 0 4.01474 0 2.82141C8.54116e-09 2.24821 0.227698 1.69849 0.633002 1.29317C1.03831 0.887859 1.58802 0.660156 2.16121 0.660156C2.73439 0.660156 3.2841 0.887859 3.68941 1.29317C4.09471 1.69849 4.32241 2.24821 4.32241 2.82141C4.32241 4.01474 3.35411 5.00315 2.16121 5.00315ZM17.996 18.6602H14.2722V12.81C14.2722 11.4158 14.2441 9.62781 12.332 9.62781C10.3918 9.62781 10.0945 11.1426 10.0945 12.7096V18.6602H6.3667V6.64248H9.9458V8.2818H9.99804C10.4963 7.33758 11.7133 6.34113 13.5289 6.34113C17.3057 6.34113 18 8.82824 18 12.0587V18.6602H17.996Z" fill="white"></path>
</svg>