<svg width="100%" height="100%" viewBox="0 0 22 17" fill="none" xmlns="http://www.w3.org/2000/svg" fit="" preserveAspectRatio="xMidYMid meet" focusable="false">
<path d="M21.5403 3.16361C21.2873 2.1782 20.5418 1.40211 19.5953 1.13874C17.8796 0.660156 11 0.660156 11 0.660156C11 0.660156 4.12044 0.660156 2.40474 1.13874C1.45821 1.40216 0.71273 2.1782 0.459711 3.16361C0 4.94974 0 8.67632 0 8.67632C0 8.67632 0 12.4029 0.459711 14.189C0.71273 15.1744 1.45821 15.9182 2.40474 16.1816C4.12044 16.6602 11 16.6602 11 16.6602C11 16.6602 17.8796 16.6602 19.5953 16.1816C20.5418 15.9182 21.2873 15.1744 21.5403 14.189C22 12.4029 22 8.67632 22 8.67632C22 8.67632 22 4.94974 21.5403 3.16361ZM8.74998 12.0598V5.29286L14.5 8.67641L8.74998 12.0598Z" fill="white"></path>
</svg>